<?xml version="1.0" encoding="UTF-8" standalone="no"?><!DOCTYPE svg PUBLIC "-//W3C//DTD SVG 1.1//EN" "http://www.w3.org/Graphics/SVG/1.1/DTD/svg11.dtd"><svg width="100%" height="100%" viewBox="0 0 65 40" version="1.1" xmlns="http://www.w3.org/2000/svg" xmlns:xlink="http://www.w3.org/1999/xlink" xml:space="preserve" style="fill-rule:evenodd;clip-rule:evenodd;stroke-linejoin:round;stroke-miterlimit:1.41421;"><path d="M63.5,20c0,0.463 -0.28,1.077 -0.564,1.376l-16,17c-0.747,0.772 -1.957,0.862 -2.828,0.078c-0.778,-0.701 -0.798,-2.067 -0.078,-2.828l12.844,-13.626l-53.374,0c-1.104,0 -2,-0.895 -2,-2c0,-1.104 0.896,-2 2,-2l53.374,0l-12.844,-13.625c-0.72,-0.761 -0.669,-2.094 0.078,-2.828c0.789,-0.775 2.093,-0.706 2.828,0.078l16,17c0.47,0.461 0.556,0.905 0.564,1.375l0,0Z" style="fill:#fff;fill-rule:nonzero;"/></svg>