<?xml version="1.0" encoding="UTF-8" standalone="no"?><!DOCTYPE svg PUBLIC "-//W3C//DTD SVG 1.1//EN" "http://www.w3.org/Graphics/SVG/1.1/DTD/svg11.dtd"><svg width="100%" height="100%" viewBox="0 0 85 70" version="1.1" xmlns="http://www.w3.org/2000/svg" xmlns:xlink="http://www.w3.org/1999/xlink" xml:space="preserve" style="fill-rule:evenodd;clip-rule:evenodd;stroke-linejoin:round;stroke-miterlimit:1.41421;"><path d="M42.752,2.797c0.916,0.006 1.832,0.03 2.746,0.079c1.866,0.098 3.726,0.29 5.572,0.577c2.16,0.337 4.3,0.805 6.4,1.411c1.584,0.457 3.146,0.993 4.674,1.612c1.207,0.489 2.394,1.03 3.553,1.624c0.876,0.449 1.736,0.929 2.577,1.441c0.646,0.393 1.28,0.805 1.901,1.236c0.498,0.347 0.988,0.705 1.469,1.077c3.301,2.553 6.175,5.736 8.042,9.491c0.323,0.648 0.614,1.312 0.871,1.989c0.341,0.897 0.622,1.817 0.837,2.753c0.324,1.413 0.496,2.86 0.509,4.309c0.021,2.346 -0.377,4.685 -1.153,6.898c-0.979,2.791 -2.539,5.354 -4.455,7.6c-1.806,2.118 -3.922,3.961 -6.211,5.54c-0.847,0.585 -1.72,1.131 -2.611,1.648l-0.01,0.007l-1.582,13.897l-0.035,0.188c-0.021,0.061 -0.037,0.123 -0.061,0.182c-0.049,0.118 -0.114,0.229 -0.194,0.329c-0.323,0.407 -0.864,0.598 -1.372,0.486c-0.124,-0.028 -0.245,-0.073 -0.357,-0.134c-0.057,-0.03 -0.108,-0.068 -0.162,-0.103l-12.51,-9.254c-0.275,0.043 -0.549,0.084 -0.824,0.124c-0.283,0.04 -0.567,0.078 -0.85,0.115c-1.249,0.155 -2.501,0.274 -3.756,0.347c-3.947,0.231 -7.923,0.047 -11.83,-0.561c-3.496,-0.545 -6.944,-1.433 -10.25,-2.698c-2.605,-0.997 -5.124,-2.229 -7.484,-3.718c-1.758,-1.11 -3.429,-2.364 -4.962,-3.77c-2.13,-1.954 -4,-4.209 -5.41,-6.737c-1.057,-1.895 -1.848,-3.938 -2.295,-6.062c-0.35,-1.659 -0.489,-3.361 -0.412,-5.054c0.061,-1.325 0.254,-2.642 0.573,-3.929c0.231,-0.932 0.527,-1.848 0.884,-2.74c0.246,-0.617 0.521,-1.222 0.821,-1.815c1.961,-3.865 4.985,-7.115 8.442,-9.693c0.489,-0.365 0.988,-0.718 1.495,-1.057c0.69,-0.462 1.395,-0.901 2.113,-1.318c0.919,-0.533 1.86,-1.03 2.819,-1.491c1.251,-0.603 2.531,-1.144 3.832,-1.628c4.238,-1.576 8.697,-2.541 13.196,-2.959c1.481,-0.137 2.966,-0.211 4.453,-0.234c0.336,-0.004 0.671,-0.005 1.007,-0.005ZM42.26,5.543c-1.419,0.01 -2.837,0.068 -4.251,0.187c-4.137,0.346 -8.242,1.178 -12.163,2.552c-1.368,0.48 -2.713,1.025 -4.026,1.641c-1.021,0.479 -2.022,1 -2.998,1.566c-0.721,0.419 -1.428,0.862 -2.119,1.33c-0.568,0.385 -1.124,0.787 -1.667,1.207c-3.14,2.428 -5.876,5.485 -7.538,9.117c-0.22,0.478 -0.419,0.966 -0.598,1.461c-0.265,0.734 -0.484,1.486 -0.652,2.249c-0.235,1.068 -0.369,2.159 -0.399,3.252c-0.042,1.514 0.117,3.032 0.469,4.505c0.454,1.902 1.225,3.72 2.228,5.396c1.38,2.304 3.185,4.336 5.216,6.087c1.517,1.308 3.164,2.464 4.892,3.478c2.279,1.338 4.699,2.432 7.192,3.305c3.265,1.144 6.659,1.912 10.091,2.337c3.661,0.455 7.373,0.525 11.048,0.213c1.451,-0.123 2.894,-0.31 4.329,-0.549l0.183,-0.018c0.061,0.002 0.122,0 0.183,0.007c0.122,0.012 0.242,0.041 0.356,0.085c0.152,0.059 0.184,0.089 0.32,0.177l11.065,8.185l1.393,-12.231l0.033,-0.182c0.019,-0.059 0.035,-0.12 0.058,-0.177c0.07,-0.173 0.175,-0.331 0.307,-0.462c0.118,-0.116 0.159,-0.133 0.297,-0.222c0.198,-0.111 0.395,-0.222 0.592,-0.335c0.764,-0.444 1.514,-0.91 2.245,-1.407c2.106,-1.434 4.061,-3.107 5.732,-5.036c1.715,-1.979 3.128,-4.237 4.02,-6.706c0.61,-1.686 0.97,-3.46 1.045,-5.251c0.053,-1.285 -0.037,-2.576 -0.268,-3.841c-0.16,-0.87 -0.385,-1.727 -0.671,-2.563c-0.187,-0.547 -0.4,-1.085 -0.636,-1.613c-1.529,-3.412 -4.012,-6.328 -6.886,-8.689c-0.428,-0.351 -0.865,-0.691 -1.311,-1.019c-0.609,-0.449 -1.233,-0.877 -1.871,-1.284c-0.766,-0.49 -1.552,-0.95 -2.352,-1.381c-1.066,-0.575 -2.159,-1.099 -3.272,-1.575c-1.418,-0.607 -2.868,-1.135 -4.341,-1.59c-1.965,-0.607 -3.969,-1.083 -5.994,-1.435c-1.892,-0.33 -3.801,-0.551 -5.718,-0.669c-0.947,-0.059 -1.895,-0.09 -2.844,-0.1c-0.239,-0.002 -0.479,-0.002 -0.719,-0.002Z" style="fill:#ebebeb;fill-rule:nonzero;"/></svg>