<?xml version="1.0" encoding="UTF-8" standalone="no"?><!DOCTYPE svg PUBLIC "-//W3C//DTD SVG 1.1//EN" "http://www.w3.org/Graphics/SVG/1.1/DTD/svg11.dtd"><svg width="100%" height="100%" viewBox="0 0 272 81" version="1.1" xmlns="http://www.w3.org/2000/svg" xmlns:xlink="http://www.w3.org/1999/xlink" xml:space="preserve" style="fill-rule:evenodd;clip-rule:evenodd;stroke-linejoin:round;stroke-miterlimit:1.41421;"><g><path d="M12.1,27.987c0,-3.15 5.138,-0.05 5.138,-3.247c0,-0.97 -0.679,-1.648 -1.696,-1.648l-5.671,0c-2.131,0 -2.131,-3.198 0,-3.198l5.671,0c4.506,0 6.59,5.281 3.489,8.334c-0.873,0.872 -2.084,1.407 -3.489,1.407c-1.164,0 -3.442,0.338 -3.442,-1.648ZM9.871,6.857l5.671,0c4.506,0 6.59,5.379 3.489,8.384c-1.648,1.6 -3.295,1.405 -5.283,1.405c-2.133,0 -2.133,-3.247 0,-3.247c1.309,0 3.49,0.34 3.49,-1.649c0,-0.92 -0.679,-1.646 -1.696,-1.646l-5.671,0c-2.131,0 -2.131,-3.247 0,-3.247ZM1.729,34.528l0,-32.566c0,-0.872 0.728,-1.647 1.6,-1.647l12.794,0c6.639,0 11.244,5.233 11.244,11.339c0,2.28 -0.583,4.557 -1.988,6.592c5.138,7.464 -0.145,17.93 -9.207,17.93l-6.301,0c-2.131,0 -2.131,-3.296 0,-3.296l6.301,0c7.414,0 10.225,-9.061 5.96,-13.424c-1.89,-2.035 1.987,-2.615 1.987,-7.706c0,-4.457 -3.538,-8.14 -7.996,-8.14l-11.146,0l0,30.918c0,2.133 -3.248,2.133 -3.248,0Z" style="fill:#008dc7;fill-rule:nonzero;"/><path d="M13.748,13.575c-0.442,0 -0.811,0.155 -1.067,0.448c-0.229,0.262 -0.356,0.618 -0.356,0.999c0,0.698 0.445,1.447 1.423,1.447c0.199,0 0.391,0.002 0.584,0.004c1.666,0.018 3.117,0.06 4.576,-1.359c1.393,-1.347 1.803,-3.314 1.068,-5.126c-0.738,-1.823 -2.438,-2.956 -4.434,-2.956l-5.671,0c-0.978,0 -1.423,0.752 -1.423,1.449c0,0.696 0.445,1.447 1.423,1.447l5.671,0c1.084,0 1.872,0.767 1.872,1.822c0,0.736 -0.285,1.257 -0.846,1.548c-0.512,0.266 -1.178,0.299 -1.701,0.299c-0.209,0 -0.416,-0.006 -0.612,-0.012c-0.179,-0.003 -0.349,-0.01 -0.507,-0.01ZM14.877,16.829c-0.181,0 -0.364,-0.002 -0.549,-0.002c-0.191,-0.004 -0.383,-0.006 -0.58,-0.006c-1.165,0 -1.775,-0.904 -1.775,-1.799c0,-0.894 0.61,-1.798 1.775,-1.798c0.161,0 0.336,0.004 0.517,0.01c0.194,0.005 0.397,0.011 0.602,0.011c0.483,0 1.095,-0.029 1.539,-0.26c0.44,-0.229 0.655,-0.632 0.655,-1.235c0,-0.852 -0.639,-1.47 -1.519,-1.47l-5.671,0c-1.166,0 -1.776,-0.906 -1.776,-1.799c0,-0.894 0.61,-1.8 1.776,-1.8l5.671,0c2.143,0 3.968,1.216 4.761,3.175c0.789,1.948 0.348,4.061 -1.15,5.51c-1.39,1.352 -2.817,1.463 -4.276,1.463ZM9.871,20.069c-0.442,0 -0.811,0.152 -1.068,0.441c-0.228,0.258 -0.355,0.606 -0.355,0.982c0,0.686 0.445,1.425 1.423,1.425l5.671,0c1.102,0 1.872,0.749 1.872,1.823c0,1.779 -1.465,1.801 -2.758,1.818c-1.48,0.02 -2.379,0.127 -2.379,1.429c0,1.316 1.12,1.493 2.216,1.493c0.203,0 0.402,-0.006 0.587,-0.012c0.166,-0.004 0.322,-0.01 0.462,-0.01c1.296,0 2.491,-0.481 3.365,-1.353c1.392,-1.372 1.801,-3.336 1.069,-5.124c-0.736,-1.795 -2.435,-2.912 -4.434,-2.912l-5.671,0ZM14.493,29.831c-0.703,0 -2.569,0 -2.569,-1.844c0,-1.743 1.449,-1.763 2.728,-1.783c1.499,-0.019 2.409,-0.129 2.409,-1.464c0,-0.881 -0.61,-1.471 -1.519,-1.471l-5.671,0c-1.166,0 -1.776,-0.895 -1.776,-1.777c0,-0.881 0.61,-1.775 1.776,-1.775l5.671,0c2.145,0 3.969,1.2 4.76,3.13c0.788,1.924 0.349,4.035 -1.148,5.508c-0.938,0.938 -2.222,1.455 -3.612,1.455c-0.136,0 -0.289,0.006 -0.451,0.01c-0.19,0.005 -0.391,0.011 -0.598,0.011ZM9.871,33.057c-0.978,0 -1.423,0.764 -1.423,1.471c0,0.71 0.445,1.472 1.423,1.472l6.301,0c4.121,0 7.749,-2.221 9.706,-5.944c1.982,-3.768 1.735,-8.256 -0.644,-11.711l-0.068,-0.099l0.068,-0.101c1.298,-1.879 1.956,-4.062 1.956,-6.491c0,-6.26 -4.861,-11.164 -11.067,-11.164l-12.794,0c-0.758,0 -1.423,0.687 -1.423,1.472l0,32.566c0,0.978 0.75,1.423 1.447,1.423c0.698,0 1.447,-0.445 1.447,-1.423l0,-31.095l11.323,0c4.506,0 8.173,3.733 8.173,8.317c0,2.653 -1.028,4.103 -1.779,5.162c-0.7,0.988 -1.085,1.533 -0.256,2.426c2.102,2.148 2.644,5.666 1.346,8.748c-1.309,3.113 -4.089,4.971 -7.435,4.971l-6.301,0ZM16.172,36.352l-6.301,0c-1.166,0 -1.776,-0.917 -1.776,-1.824c0,-0.906 0.61,-1.823 1.776,-1.823l6.301,0c3.199,0 5.858,-1.779 7.11,-4.756c1.244,-2.953 0.732,-6.316 -1.276,-8.369c-1.027,-1.105 -0.475,-1.886 0.225,-2.873c0.721,-1.018 1.712,-2.418 1.712,-4.957c0,-4.389 -3.508,-7.963 -7.82,-7.963l-10.97,0l0,30.741c0,1.167 -0.906,1.777 -1.8,1.777c-0.894,0 -1.799,-0.61 -1.799,-1.777l0,-32.566c0,-0.989 0.813,-1.824 1.775,-1.824l12.794,0c6.404,0 11.42,5.058 11.42,11.516c0,2.458 -0.657,4.676 -1.95,6.592c2.387,3.548 2.62,8.125 0.597,11.975c-2.019,3.84 -5.764,6.131 -10.018,6.131Z" style="fill:#008dc7;fill-rule:nonzero;"/><path d="M50.578,21.492c0,0.922 -0.727,1.648 -1.647,1.648l-5.67,0l0,3.199l8.674,0c0.922,0 1.647,0.728 1.647,1.648c0,0.873 -0.725,1.598 -1.647,1.598l-10.274,0c-0.92,0 -1.648,-0.725 -1.648,-1.598l0,-6.495c0,-0.873 0.728,-1.598 1.648,-1.598l7.27,0c0.92,0 1.647,0.725 1.647,1.598ZM53.582,8.553c0,0.873 -0.725,1.6 -1.647,1.6l-8.674,0l0,3.246l5.67,0c0.92,0 1.647,0.727 1.647,1.647c0,0.873 -0.727,1.6 -1.647,1.6l-7.27,0c-0.92,0 -1.648,-0.727 -1.648,-1.6l0,-6.493c0,-0.921 0.728,-1.598 1.648,-1.598l10.274,0c0.922,0 1.647,0.677 1.647,1.598ZM53.582,34.48c0,0.873 -0.725,1.6 -1.647,1.6l-16.767,0c-0.873,0 -1.6,-0.727 -1.6,-1.6l0,-32.42c0,-0.873 0.727,-1.6 1.6,-1.6l16.767,0c0.922,0 1.647,0.727 1.647,1.6c0,0.92 -0.725,1.648 -1.647,1.648l-15.12,0l0,29.125l15.12,0c0.922,0 1.647,0.727 1.647,1.647Z" style="fill:#008dc7;fill-rule:nonzero;"/><path d="M41.661,7.13c-0.839,0 -1.471,0.612 -1.471,1.423l0,6.493c0,0.785 0.66,1.423 1.471,1.423l7.27,0c0.811,0 1.471,-0.638 1.471,-1.423c0,-0.824 -0.646,-1.471 -1.471,-1.471l-5.847,0l0,-3.599l8.851,0c0.812,0 1.472,-0.638 1.472,-1.423c0,-0.811 -0.633,-1.423 -1.472,-1.423l-10.274,0ZM48.931,16.821l-7.27,0c-1.005,0 -1.824,-0.795 -1.824,-1.775l0,-6.493c0,-1.011 0.785,-1.775 1.824,-1.775l10.274,0c1.04,0 1.824,0.764 1.824,1.775c0,0.98 -0.818,1.775 -1.824,1.775l-8.498,0l0,2.896l5.494,0c1.022,0 1.823,0.801 1.823,1.822c0,0.98 -0.818,1.775 -1.823,1.775ZM41.661,20.069c-0.811,0 -1.471,0.639 -1.471,1.423l0,6.495c0,0.783 0.66,1.423 1.471,1.423l10.274,0c0.812,0 1.472,-0.64 1.472,-1.423c0,-0.827 -0.646,-1.473 -1.472,-1.473l-8.851,0l0,-3.55l5.847,0c0.825,0 1.471,-0.645 1.471,-1.472c0,-0.784 -0.66,-1.423 -1.471,-1.423l-7.27,0ZM51.935,29.762l-10.274,0c-1.005,0 -1.824,-0.797 -1.824,-1.775l0,-6.495c0,-0.978 0.819,-1.775 1.824,-1.775l7.27,0c1.005,0 1.823,0.797 1.823,1.775c0,1.023 -0.801,1.824 -1.823,1.824l-5.494,0l0,2.846l8.498,0c1.023,0 1.824,0.802 1.824,1.825c0,0.978 -0.818,1.775 -1.824,1.775ZM35.168,0.636c-0.771,0 -1.423,0.65 -1.423,1.424l0,32.42c0,0.772 0.652,1.424 1.423,1.424l16.767,0c0.812,0 1.472,-0.639 1.472,-1.424c0,-0.825 -0.646,-1.472 -1.472,-1.472l-15.296,0l0,-29.477l15.296,0c0.826,0 1.472,-0.646 1.472,-1.471c0,-0.785 -0.66,-1.424 -1.472,-1.424l-16.767,0ZM51.935,36.255l-16.767,0c-0.962,0 -1.776,-0.813 -1.776,-1.775l0,-32.42c0,-0.962 0.814,-1.775 1.776,-1.775l16.767,0c1.006,0 1.824,0.795 1.824,1.775c0,1.021 -0.801,1.822 -1.824,1.822l-14.944,0l0,28.774l14.944,0c1.023,0 1.824,0.8 1.824,1.824c0,0.98 -0.818,1.775 -1.824,1.775Z" style="fill:#008dc7;fill-rule:nonzero;"/><path d="M82.998,8.601c0,0.872 -0.678,1.552 -1.55,1.552l-6.494,0l0,24.277c0,0.923 -0.727,1.65 -1.648,1.65c-0.872,0 -1.599,-0.727 -1.599,-1.65l0,-25.829c0,-0.92 0.727,-1.646 1.599,-1.646l8.142,0c0.872,0 1.55,0.726 1.55,1.646ZM57.168,8.601c0,-0.92 0.727,-1.646 1.648,-1.646l8.044,0c0.922,0 1.648,0.726 1.648,1.646l0,25.829c0,0.923 -0.726,1.65 -1.648,1.65c-0.871,0 -1.647,-0.727 -1.647,-1.65l0,-24.277l-6.397,0c-0.921,0 -1.648,-0.68 -1.648,-1.552ZM57.168,2.107c0,-0.92 0.727,-1.6 1.648,-1.6l22.632,0c0.872,0 1.55,0.68 1.55,1.6c0,0.873 -0.678,1.601 -1.55,1.601l-22.632,0c-0.921,0 -1.648,-0.728 -1.648,-1.601Z" style="fill:#008dc7;fill-rule:nonzero;"/><path d="M58.816,0.685c-0.839,0 -1.471,0.611 -1.471,1.422c0,0.785 0.66,1.424 1.471,1.424l22.632,0c0.758,0 1.374,-0.639 1.374,-1.424c0,-0.811 -0.591,-1.422 -1.374,-1.422l-22.632,0ZM81.448,3.882l-22.632,0c-1.006,0 -1.825,-0.795 -1.825,-1.775c0,-1.012 0.785,-1.774 1.825,-1.774l22.632,0c0.983,0 1.727,0.762 1.727,1.774c0,0.98 -0.775,1.775 -1.727,1.775ZM58.816,7.13c-0.825,0 -1.471,0.646 -1.471,1.471c0,0.771 0.646,1.375 1.471,1.375l6.572,0l0,24.454c0,0.8 0.674,1.474 1.472,1.474c0.826,0 1.472,-0.647 1.472,-1.474l0,-25.829c0,-0.825 -0.646,-1.471 -1.472,-1.471l-8.044,0ZM66.86,36.255c-0.989,0 -1.823,-0.834 -1.823,-1.825l0,-24.102l-6.221,0c-1.023,0 -1.825,-0.757 -1.825,-1.727c0,-1.022 0.802,-1.823 1.825,-1.823l8.044,0c1.023,0 1.824,0.801 1.824,1.823l0,25.829c0,1.025 -0.801,1.825 -1.824,1.825ZM73.306,7.13c-0.784,0 -1.423,0.659 -1.423,1.471l0,25.829c0,0.814 0.639,1.474 1.423,1.474c0.825,0 1.472,-0.647 1.472,-1.474l0,-24.454l6.67,0c0.771,0 1.374,-0.604 1.374,-1.375c0,-0.825 -0.603,-1.471 -1.374,-1.471l-8.142,0ZM73.306,36.255c-0.979,0 -1.776,-0.817 -1.776,-1.825l0,-25.829c0,-1.004 0.797,-1.823 1.776,-1.823l8.142,0c0.968,0 1.727,0.801 1.727,1.823c0,0.97 -0.759,1.727 -1.727,1.727l-6.319,0l0,24.102c0,1.025 -0.801,1.825 -1.823,1.825Z" style="fill:#008dc7;fill-rule:nonzero;"/><path d="M105.241,21.492c0,0.922 -0.726,1.648 -1.648,1.648l-5.67,0l0,3.199l8.675,0c0.921,0 1.648,0.728 1.648,1.648c0,0.873 -0.727,1.598 -1.648,1.598l-10.274,0c-0.921,0 -1.647,-0.725 -1.647,-1.598l0,-6.495c0,-0.873 0.726,-1.598 1.647,-1.598l7.269,0c0.922,0 1.648,0.725 1.648,1.598ZM108.246,8.553c0,0.873 -0.727,1.6 -1.648,1.6l-8.675,0l0,3.246l5.67,0c0.922,0 1.648,0.727 1.648,1.647c0,0.873 -0.726,1.6 -1.648,1.6l-7.269,0c-0.921,0 -1.647,-0.727 -1.647,-1.6l0,-6.493c0,-0.921 0.726,-1.598 1.647,-1.598l10.274,0c0.921,0 1.648,0.677 1.648,1.598ZM108.246,34.48c0,0.873 -0.727,1.6 -1.648,1.6l-16.768,0c-0.872,0 -1.599,-0.727 -1.599,-1.6l0,-32.42c0,-0.873 0.727,-1.6 1.599,-1.6l16.768,0c0.921,0 1.648,0.727 1.648,1.6c0,0.92 -0.727,1.648 -1.648,1.648l-15.12,0l0,29.125l15.12,0c0.921,0 1.648,0.727 1.648,1.647Z" style="fill:#008dc7;fill-rule:nonzero;"/><path d="M96.324,7.13c-0.838,0 -1.471,0.612 -1.471,1.423l0,6.493c0,0.785 0.659,1.423 1.471,1.423l7.269,0c0.812,0 1.472,-0.638 1.472,-1.423c0,-0.824 -0.646,-1.471 -1.472,-1.471l-5.846,0l0,-3.599l8.851,0c0.812,0 1.471,-0.638 1.471,-1.423c0,-0.811 -0.632,-1.423 -1.471,-1.423l-10.274,0ZM103.593,16.821l-7.269,0c-1.005,0 -1.824,-0.795 -1.824,-1.775l0,-6.493c0,-1.011 0.785,-1.775 1.824,-1.775l10.274,0c1.04,0 1.825,0.764 1.825,1.775c0,0.98 -0.819,1.775 -1.825,1.775l-8.499,0l0,2.896l5.494,0c1.024,0 1.825,0.801 1.825,1.822c0,0.98 -0.819,1.775 -1.825,1.775ZM96.324,20.069c-0.812,0 -1.471,0.639 -1.471,1.423l0,6.495c0,0.783 0.659,1.423 1.471,1.423l10.274,0c0.812,0 1.471,-0.64 1.471,-1.423c0,-0.827 -0.646,-1.473 -1.471,-1.473l-8.851,0l0,-3.55l5.846,0c0.826,0 1.472,-0.645 1.472,-1.472c0,-0.784 -0.66,-1.423 -1.472,-1.423l-7.269,0ZM106.598,29.762l-10.274,0c-1.005,0 -1.824,-0.797 -1.824,-1.775l0,-6.495c0,-0.978 0.819,-1.775 1.824,-1.775l7.269,0c1.006,0 1.825,0.797 1.825,1.775c0,1.023 -0.801,1.824 -1.825,1.824l-5.494,0l0,2.846l8.499,0c1.024,0 1.825,0.802 1.825,1.825c0,0.978 -0.819,1.775 -1.825,1.775ZM89.83,0.636c-0.772,0 -1.423,0.65 -1.423,1.424l0,32.42c0,0.772 0.651,1.424 1.423,1.424l16.768,0c0.812,0 1.471,-0.639 1.471,-1.424c0,-0.825 -0.646,-1.472 -1.471,-1.472l-15.296,0l0,-29.477l15.296,0c0.825,0 1.471,-0.646 1.471,-1.471c0,-0.785 -0.659,-1.424 -1.471,-1.424l-16.768,0ZM106.598,36.255l-16.768,0c-0.963,0 -1.776,-0.813 -1.776,-1.775l0,-32.42c0,-0.962 0.813,-1.775 1.776,-1.775l16.768,0c1.006,0 1.825,0.795 1.825,1.775c0,1.021 -0.801,1.822 -1.825,1.822l-14.944,0l0,28.774l14.944,0c1.024,0 1.825,0.8 1.825,1.824c0,0.98 -0.819,1.775 -1.825,1.775Z" style="fill:#008dc7;fill-rule:nonzero;"/><path d="M127.001,16.646c-2.52,-0.145 -2.618,-3.198 0,-3.198c1.502,0 3.295,0.242 3.295,-1.648c0,-0.97 -0.775,-1.647 -1.697,-1.647l-5.766,0c-2.133,0 -2.133,-3.247 0,-3.247l5.766,0c2.957,0 4.895,2.471 4.895,4.943c0,2.714 -2.229,4.797 -4.895,4.797c-0.435,0 -1.065,0.048 -1.598,0ZM128.938,35.4l-4.457,-6.445l0,5.525c0,2.133 -3.248,2.133 -3.248,0l0,-10.564c0,-1.745 2.035,-2.229 2.956,-1.019l7.415,10.614c1.212,1.745 -1.406,3.635 -2.666,1.889ZM114.74,34.48l0,-32.42c0,-0.873 0.775,-1.6 1.647,-1.6l12.745,0c9.935,0 14.927,12.164 7.948,19.337c-1.406,1.404 -3.15,2.47 -5.088,2.955l7.511,10.759c1.212,1.745 -1.453,3.635 -2.616,1.889l-8.966,-12.841c-0.969,-1.26 0,-2.665 1.211,-2.665c7.125,0 10.614,-8.821 5.622,-13.861c-1.454,-1.453 -3.44,-2.325 -5.622,-2.325l-11.146,0l0,30.772c0,2.133 -3.246,2.133 -3.246,0Z" style="fill:#008dc7;fill-rule:nonzero;"/><path d="M127.001,13.623c-1.183,0 -1.731,0.658 -1.751,1.312c-0.02,0.712 0.578,1.466 1.761,1.534c0.373,0.036 0.771,0.022 1.128,0.01c0.167,-0.004 0.323,-0.01 0.46,-0.01c2.603,0 4.718,-2.073 4.718,-4.62c0,-2.292 -1.803,-4.767 -4.718,-4.767l-5.766,0c-0.978,0 -1.423,0.749 -1.423,1.447c0,0.698 0.445,1.447 1.423,1.447l5.766,0c1.05,0 1.873,0.801 1.873,1.824c0,1.833 -1.647,1.833 -2.532,1.833c-0.158,0 -0.318,-0.002 -0.478,-0.004c-0.155,-0.004 -0.31,-0.006 -0.461,-0.006ZM127.555,16.843c-0.194,0 -0.387,-0.004 -0.57,-0.022c-1.401,-0.079 -2.112,-1.016 -2.087,-1.896c0.024,-0.823 0.684,-1.654 2.103,-1.654c0.153,0 0.31,0.003 0.467,0.004c0.157,0.005 0.316,0.006 0.472,0.006c1.38,0 2.179,-0.242 2.179,-1.481c0,-0.838 -0.653,-1.472 -1.52,-1.472l-5.766,0c-1.167,0 -1.776,-0.905 -1.776,-1.799c0,-0.894 0.609,-1.799 1.776,-1.799l5.766,0c3.132,0 5.072,2.656 5.072,5.119c0,2.742 -2.276,4.972 -5.072,4.972c-0.133,0 -0.286,0.006 -0.45,0.01c-0.189,0.006 -0.391,0.012 -0.594,0.012ZM124.303,28.391l4.781,6.911c0.367,0.51 0.815,0.617 1.123,0.617c0.558,0 1.111,-0.343 1.377,-0.854c0.245,-0.468 0.201,-0.984 -0.125,-1.453l-7.414,-10.613c-0.286,-0.376 -0.723,-0.595 -1.196,-0.595c-0.715,0 -1.439,0.519 -1.439,1.512l0,10.564c0,0.979 0.749,1.424 1.447,1.424c0.697,0 1.446,-0.445 1.446,-1.424l0,-6.089ZM130.207,36.271c-0.553,0 -1.054,-0.272 -1.411,-0.767l-4.139,-5.985l0,4.961c0,1.165 -0.906,1.775 -1.8,1.775c-0.895,0 -1.8,-0.61 -1.8,-1.775l0,-10.564c0,-1.224 0.901,-1.863 1.792,-1.863c0.584,0 1.123,0.267 1.481,0.739l7.419,10.619c0.398,0.573 0.452,1.236 0.147,1.819c-0.326,0.621 -1.003,1.041 -1.689,1.041ZM117.81,3.531l11.322,0c2.172,0 4.213,0.844 5.747,2.378c2.4,2.423 3.062,5.915 1.727,9.116c-1.297,3.112 -4.161,5.044 -7.474,5.044c-0.541,0 -1.048,0.318 -1.29,0.811c-0.245,0.499 -0.165,1.071 0.218,1.572l8.971,12.85c0.341,0.51 0.772,0.617 1.073,0.617c0.545,0 1.11,-0.356 1.376,-0.862c0.244,-0.467 0.201,-0.98 -0.121,-1.445l-7.658,-10.969l0.249,-0.062c1.827,-0.457 3.559,-1.463 5.006,-2.91c3.212,-3.301 4.089,-8.004 2.286,-12.271c-1.761,-4.171 -5.635,-6.764 -10.11,-6.764l-12.745,0c-0.784,0 -1.471,0.664 -1.471,1.424l0,32.42c0,0.979 0.75,1.424 1.448,1.424c0.695,0 1.446,-0.445 1.446,-1.424l0,-30.949ZM138.104,36.271c-0.547,0 -1.032,-0.274 -1.364,-0.773l-8.963,-12.84c-0.465,-0.602 -0.558,-1.311 -0.251,-1.933c0.302,-0.612 0.931,-1.008 1.606,-1.008c3.169,0 5.908,-1.85 7.149,-4.827c1.279,-3.067 0.645,-6.413 -1.652,-8.734c-1.467,-1.465 -3.419,-2.274 -5.497,-2.274l-10.97,0l0,30.598c0,1.165 -0.905,1.775 -1.798,1.775c-0.895,0 -1.801,-0.61 -1.801,-1.775l0,-32.42c0,-0.962 0.835,-1.775 1.824,-1.775l12.745,0c4.619,0 8.617,2.673 10.435,6.978c1.857,4.401 0.953,9.25 -2.36,12.656c-1.429,1.428 -3.127,2.441 -4.926,2.941l7.367,10.551c0.395,0.569 0.448,1.228 0.144,1.809c-0.329,0.628 -1.007,1.051 -1.688,1.051Z" style="fill:#008dc7;fill-rule:nonzero;"/><path d="M161.988,21.492c0,0.922 -0.726,1.648 -1.647,1.648l-5.671,0l0,3.199l8.675,0c0.922,0 1.648,0.728 1.648,1.648c0,0.873 -0.726,1.598 -1.648,1.598l-10.273,0c-0.921,0 -1.648,-0.725 -1.648,-1.598l0,-6.495c0,-0.873 0.727,-1.598 1.648,-1.598l7.269,0c0.921,0 1.647,0.725 1.647,1.598ZM164.993,8.553c0,0.873 -0.726,1.6 -1.648,1.6l-8.675,0l0,3.246l5.671,0c0.921,0 1.647,0.727 1.647,1.647c0,0.873 -0.726,1.6 -1.647,1.6l-7.269,0c-0.921,0 -1.648,-0.727 -1.648,-1.6l0,-6.493c0,-0.921 0.727,-1.598 1.648,-1.598l10.273,0c0.922,0 1.648,0.677 1.648,1.598ZM164.993,34.48c0,0.873 -0.726,1.6 -1.648,1.6l-16.767,0c-0.873,0 -1.599,-0.727 -1.599,-1.6l0,-32.42c0,-0.873 0.726,-1.6 1.599,-1.6l16.767,0c0.922,0 1.648,0.727 1.648,1.6c0,0.92 -0.726,1.648 -1.648,1.648l-15.12,0l0,29.125l15.12,0c0.922,0 1.648,0.727 1.648,1.647Z" style="fill:#008dc7;fill-rule:nonzero;"/><path d="M153.072,7.13c-0.839,0 -1.472,0.612 -1.472,1.423l0,6.493c0,0.785 0.659,1.423 1.472,1.423l7.269,0c0.812,0 1.472,-0.638 1.472,-1.423c0,-0.824 -0.648,-1.471 -1.472,-1.471l-5.847,0l0,-3.599l8.851,0c0.812,0 1.473,-0.638 1.473,-1.423c0,-0.811 -0.633,-1.423 -1.473,-1.423l-10.273,0ZM160.341,16.821l-7.269,0c-1.007,0 -1.824,-0.795 -1.824,-1.775l0,-6.493c0,-1.011 0.784,-1.775 1.824,-1.775l10.273,0c1.04,0 1.825,0.764 1.825,1.775c0,0.98 -0.818,1.775 -1.825,1.775l-8.498,0l0,2.896l5.494,0c1.023,0 1.824,0.801 1.824,1.822c0,0.98 -0.818,1.775 -1.824,1.775ZM153.072,20.069c-0.813,0 -1.472,0.639 -1.472,1.423l0,6.495c0,0.783 0.659,1.423 1.472,1.423l10.273,0c0.812,0 1.473,-0.64 1.473,-1.423c0,-0.827 -0.647,-1.473 -1.473,-1.473l-8.851,0l0,-3.55l5.847,0c0.824,0 1.472,-0.645 1.472,-1.472c0,-0.784 -0.66,-1.423 -1.472,-1.423l-7.269,0ZM163.345,29.762l-10.273,0c-1.007,0 -1.824,-0.797 -1.824,-1.775l0,-6.495c0,-0.978 0.817,-1.775 1.824,-1.775l7.269,0c1.006,0 1.824,0.797 1.824,1.775c0,1.023 -0.801,1.824 -1.824,1.824l-5.494,0l0,2.846l8.498,0c1.024,0 1.825,0.802 1.825,1.825c0,0.978 -0.818,1.775 -1.825,1.775ZM146.578,0.636c-0.772,0 -1.423,0.65 -1.423,1.424l0,32.42c0,0.772 0.651,1.424 1.423,1.424l16.767,0c0.812,0 1.473,-0.639 1.473,-1.424c0,-0.825 -0.647,-1.472 -1.473,-1.472l-15.296,0l0,-29.477l15.296,0c0.826,0 1.473,-0.646 1.473,-1.471c0,-0.785 -0.661,-1.424 -1.473,-1.424l-16.767,0ZM163.345,36.255l-16.767,0c-0.962,0 -1.776,-0.813 -1.776,-1.775l0,-32.42c0,-0.962 0.814,-1.775 1.776,-1.775l16.767,0c1.007,0 1.825,0.795 1.825,1.775c0,1.021 -0.801,1.822 -1.825,1.822l-14.943,0l0,28.774l14.943,0c1.024,0 1.825,0.8 1.825,1.824c0,0.98 -0.818,1.775 -1.825,1.775Z" style="fill:#008dc7;fill-rule:nonzero;"/><path d="M24.555,54.418c-1.744,-0.775 -3.779,-1.116 -6.106,-1.066c-11.049,0.435 -10.709,16.767 0.097,16.672l0,-8.289c0,-2.132 3.295,-2.132 3.295,0l0,9.792c0,1.742 -2.229,1.792 -3.44,1.792c-14.733,0 -15.412,-22.632 -0.049,-23.167c2.859,-0.095 5.332,0.34 7.512,1.262c1.938,0.92 0.63,3.828 -1.309,3.004ZM27.561,77.487c-12.116,6.685 -27.14,-0.678 -27.382,-15.412c-0.242,-13.811 12.6,-21.712 26.17,-17.349c2.326,0.725 1.308,3.828 -0.97,3.053c-11.389,-3.683 -22.147,2.665 -21.954,14.249c0.195,12.211 12.407,17.687 21.76,13.084l0,-13.377c0,-2.132 3.247,-2.132 3.247,0l0,14.347c0,0.58 -0.339,1.113 -0.871,1.405Z" style="fill:#008dc7;fill-rule:nonzero;"/><path d="M19.126,50.315c-0.252,0 -0.509,0.006 -0.768,0.014c-7.754,0.27 -11.185,6.213 -11.092,11.623c0.135,7.688 5.866,11.19 11.135,11.19c1.614,0 3.264,-0.193 3.264,-1.615l0,-9.792c0,-0.977 -0.762,-1.422 -1.471,-1.422c-0.709,0 -1.471,0.445 -1.471,1.422l0,8.464l-0.272,0.002c-5.607,0 -8.245,-4.277 -8.325,-8.251c-0.079,-4.064 2.489,-8.544 8.316,-8.775c0.149,-0.002 0.295,-0.004 0.439,-0.004c2.223,0 4.102,0.356 5.746,1.085c0.202,0.086 0.406,0.131 0.603,0.131c0.759,0 1.244,-0.619 1.373,-1.194c0.122,-0.539 -0.028,-1.248 -0.815,-1.621c-1.999,-0.843 -4.182,-1.257 -6.662,-1.257ZM18.401,73.494c-3.47,0 -6.412,-1.242 -8.509,-3.595c-1.867,-2.095 -2.925,-4.916 -2.977,-7.94c-0.097,-5.575 3.439,-11.705 11.431,-11.982c2.853,-0.099 5.327,0.32 7.586,1.275c0.982,0.464 1.166,1.347 1.015,2.019c-0.195,0.864 -0.9,1.468 -1.717,1.468c-0.244,0 -0.495,-0.054 -0.743,-0.158c-1.705,-0.76 -3.683,-1.1 -6.035,-1.054c-5.586,0.22 -8.049,4.518 -7.973,8.417c0.075,3.788 2.577,7.861 7.89,7.903l0,-8.112c0,-1.164 0.918,-1.774 1.825,-1.774c0.906,0 1.824,0.61 1.824,1.774l0,9.792c0,1.967 -2.535,1.967 -3.617,1.967ZM18.898,43.699c-5.365,0 -10.206,1.922 -13.635,5.41c-3.3,3.359 -4.999,7.843 -4.908,12.964c0.141,8.591 6.403,17.723 17.731,17.723c3.223,0 6.469,-0.852 9.389,-2.464c0.482,-0.262 0.781,-0.742 0.781,-1.25l0,-14.347c0,-0.977 -0.75,-1.422 -1.447,-1.422c-0.696,0 -1.448,0.445 -1.448,1.422l0,13.486l-0.097,0.048c-2.177,1.072 -4.609,1.638 -7.034,1.638c-7.327,0 -14.825,-5.11 -14.98,-14.877c-0.073,-4.327 1.352,-8.101 4.121,-10.918c2.889,-2.937 7.001,-4.556 11.579,-4.556c2.138,0 4.32,0.355 6.484,1.054c0.224,0.078 0.442,0.115 0.647,0.115c0.833,0 1.308,-0.615 1.395,-1.19c0.085,-0.561 -0.172,-1.326 -1.18,-1.642c-2.465,-0.793 -4.954,-1.194 -7.398,-1.194ZM18.086,80.148c-4.722,0 -9.159,-1.729 -12.495,-4.869c-3.518,-3.314 -5.502,-8.002 -5.588,-13.2c-0.092,-5.219 1.641,-9.789 5.01,-13.217c3.494,-3.557 8.425,-5.515 13.885,-5.515c2.48,0 5.005,0.408 7.505,1.211c1.219,0.381 1.528,1.333 1.421,2.03c-0.11,0.718 -0.702,1.489 -1.743,1.489c-0.245,0 -0.499,-0.043 -0.759,-0.131c-2.126,-0.687 -4.271,-1.038 -6.372,-1.038c-4.483,0 -8.505,1.581 -11.328,4.452c-2.701,2.745 -4.091,6.434 -4.021,10.664c0.153,9.54 7.474,14.531 14.629,14.531c2.335,0 4.676,-0.537 6.78,-1.553l0,-13.267c0,-1.164 0.905,-1.774 1.799,-1.774c0.894,0 1.8,0.61 1.8,1.774l0,14.347c0,0.636 -0.37,1.233 -0.964,1.56c-2.971,1.64 -6.277,2.506 -9.559,2.506Z" style="fill:#008dc7;fill-rule:nonzero;"/><path d="M53.05,64.983c0,0.92 -0.728,1.648 -1.648,1.648l-5.671,0l0,3.198l8.676,0c0.92,0 1.648,0.728 1.648,1.648c0,0.872 -0.728,1.6 -1.648,1.6l-10.275,0c-0.921,0 -1.647,-0.728 -1.647,-1.6l0,-6.494c0,-0.872 0.726,-1.599 1.647,-1.599l7.27,0c0.92,0 1.648,0.727 1.648,1.599ZM56.055,52.042c0,0.873 -0.728,1.601 -1.648,1.601l-8.676,0l0,3.247l5.671,0c0.92,0 1.648,0.727 1.648,1.647c0,0.873 -0.728,1.598 -1.648,1.598l-7.27,0c-0.921,0 -1.647,-0.725 -1.647,-1.598l0,-6.495c0,-0.92 0.726,-1.598 1.647,-1.598l10.275,0c0.92,0 1.648,0.678 1.648,1.598ZM56.055,77.97c0,0.872 -0.728,1.6 -1.648,1.6l-16.769,0c-0.872,0 -1.599,-0.728 -1.599,-1.6l0,-32.421c0,-0.873 0.727,-1.6 1.599,-1.6l16.769,0c0.92,0 1.648,0.727 1.648,1.6c0,0.922 -0.728,1.647 -1.648,1.647l-15.121,0l0,29.126l15.121,0c0.92,0 1.648,0.727 1.648,1.648Z" style="fill:#008dc7;fill-rule:nonzero;"/><path d="M44.132,50.621c-0.838,0 -1.471,0.611 -1.471,1.421l0,6.495c0,0.784 0.66,1.424 1.471,1.424l7.27,0c0.811,0 1.471,-0.64 1.471,-1.424c0,-0.824 -0.646,-1.472 -1.471,-1.472l-5.846,0l0,-3.598l8.851,0c0.811,0 1.471,-0.64 1.471,-1.425c0,-0.81 -0.632,-1.421 -1.471,-1.421l-10.275,0ZM51.402,60.313l-7.27,0c-1.005,0 -1.823,-0.798 -1.823,-1.776l0,-6.495c0,-1.012 0.784,-1.774 1.823,-1.774l10.275,0c1.04,0 1.824,0.762 1.824,1.774c0,0.98 -0.818,1.777 -1.824,1.777l-8.498,0l0,2.895l5.493,0c1.022,0 1.824,0.8 1.824,1.823c0,0.978 -0.818,1.776 -1.824,1.776ZM44.132,63.56c-0.811,0 -1.471,0.638 -1.471,1.423l0,6.494c0,0.785 0.66,1.422 1.471,1.422l10.275,0c0.811,0 1.471,-0.637 1.471,-1.422c0,-0.825 -0.646,-1.471 -1.471,-1.471l-8.851,0l0,-3.552l5.846,0c0.825,0 1.471,-0.645 1.471,-1.471c0,-0.785 -0.66,-1.423 -1.471,-1.423l-7.27,0ZM54.407,73.251l-10.275,0c-1.005,0 -1.823,-0.794 -1.823,-1.774l0,-6.494c0,-0.979 0.818,-1.774 1.823,-1.774l7.27,0c1.006,0 1.824,0.795 1.824,1.774c0,1.024 -0.802,1.825 -1.824,1.825l-5.493,0l0,2.846l8.498,0c1.023,0 1.824,0.801 1.824,1.823c0,0.98 -0.818,1.774 -1.824,1.774ZM37.638,44.126c-0.771,0 -1.423,0.652 -1.423,1.423l0,32.421c0,0.773 0.652,1.425 1.423,1.425l16.769,0c0.811,0 1.471,-0.64 1.471,-1.425c0,-0.825 -0.646,-1.471 -1.471,-1.471l-15.297,0l0,-29.477l15.297,0c0.825,0 1.471,-0.648 1.471,-1.473c0,-0.785 -0.66,-1.423 -1.471,-1.423l-16.769,0ZM54.407,79.747l-16.769,0c-0.962,0 -1.775,-0.813 -1.775,-1.777l0,-32.421c0,-0.962 0.813,-1.775 1.775,-1.775l16.769,0c1.006,0 1.824,0.795 1.824,1.775c0,1.024 -0.801,1.825 -1.824,1.825l-14.944,0l0,28.773l14.944,0c1.023,0 1.824,0.802 1.824,1.823c0,0.98 -0.818,1.777 -1.824,1.777Z" style="fill:#008dc7;fill-rule:nonzero;"/><path d="M72.918,71.477c0,-3.151 5.137,-0.048 5.137,-3.247c0,-0.969 -0.678,-1.646 -1.695,-1.646l-5.671,0c-2.133,0 -2.133,-3.2 0,-3.2l5.671,0c4.506,0 6.59,5.282 3.489,8.335c-0.873,0.873 -2.084,1.406 -3.489,1.406c-1.163,0 -3.442,0.339 -3.442,-1.648ZM70.689,50.347l5.671,0c4.506,0 6.59,5.38 3.489,8.384c-1.649,1.599 -3.296,1.404 -5.282,1.404c-2.133,0 -2.133,-3.245 0,-3.245c1.308,0 3.488,0.338 3.488,-1.648c0,-0.92 -0.678,-1.647 -1.695,-1.647l-5.671,0c-2.133,0 -2.133,-3.248 0,-3.248ZM62.548,78.019l0,-32.568c0,-0.872 0.726,-1.647 1.598,-1.647l12.795,0c6.64,0 11.243,5.235 11.243,11.341c0,2.277 -0.581,4.555 -1.987,6.59c5.137,7.464 -0.145,17.932 -9.207,17.932l-6.301,0c-2.133,0 -2.133,-3.295 0,-3.295l6.301,0c7.413,0 10.226,-9.063 5.96,-13.423c-1.89,-2.036 1.987,-2.619 1.987,-7.707c0,-4.46 -3.537,-8.143 -7.996,-8.143l-11.147,0l0,30.92c0,2.133 -3.246,2.133 -3.246,0Z" style="fill:#008dc7;fill-rule:nonzero;"/><path d="M74.567,57.065c-0.442,0 -0.811,0.155 -1.068,0.447c-0.23,0.265 -0.355,0.618 -0.355,1.002c0,0.695 0.445,1.447 1.423,1.447c0.197,0 0.392,0.001 0.582,0.004c1.666,0.016 3.117,0.057 4.577,-1.36c1.393,-1.35 1.802,-3.313 1.068,-5.125c-0.737,-1.823 -2.437,-2.956 -4.434,-2.956l-5.671,0c-0.978,0 -1.423,0.75 -1.423,1.447c0,0.697 0.445,1.446 1.423,1.446l5.671,0c1.085,0 1.872,0.768 1.872,1.825c0,0.736 -0.285,1.256 -0.847,1.547c-0.511,0.264 -1.177,0.298 -1.7,0.298l-0.001,0c-0.208,0 -0.413,-0.004 -0.611,-0.01c-0.178,-0.007 -0.349,-0.012 -0.506,-0.012ZM75.694,60.32c-0.18,0 -0.362,-0.002 -0.549,-0.003c-0.189,-0.003 -0.383,-0.004 -0.578,-0.004c-1.167,0 -1.776,-0.905 -1.776,-1.799c0,-0.894 0.609,-1.8 1.776,-1.8c0.16,0 0.334,0.005 0.515,0.011c0.194,0.004 0.397,0.01 0.602,0.01l0.001,0c0.484,0 1.095,-0.03 1.538,-0.258c0.442,-0.229 0.656,-0.634 0.656,-1.235c0,-0.852 -0.639,-1.473 -1.519,-1.473l-5.671,0c-1.166,0 -1.775,-0.904 -1.775,-1.798c0,-0.895 0.609,-1.799 1.775,-1.799l5.671,0c2.142,0 3.967,1.217 4.76,3.174c0.789,1.948 0.35,4.061 -1.149,5.511c-1.391,1.35 -2.816,1.463 -4.277,1.463ZM70.689,63.56c-0.442,0 -0.811,0.151 -1.067,0.442c-0.23,0.256 -0.356,0.606 -0.356,0.981c0,0.686 0.445,1.424 1.423,1.424l5.671,0c1.102,0 1.872,0.749 1.872,1.823c0,1.78 -1.465,1.8 -2.757,1.818c-1.482,0.022 -2.381,0.126 -2.381,1.429c0,1.315 1.121,1.495 2.216,1.495c0.203,0 0.402,-0.007 0.587,-0.013c0.167,-0.006 0.322,-0.01 0.463,-0.01c1.296,0 2.491,-0.48 3.364,-1.355c1.393,-1.372 1.803,-3.333 1.07,-5.122c-0.736,-1.797 -2.435,-2.912 -4.434,-2.912l-5.671,0ZM75.31,73.324c-0.701,0 -2.568,0 -2.568,-1.847c0,-1.743 1.449,-1.763 2.727,-1.781c1.501,-0.022 2.41,-0.131 2.41,-1.466c0,-0.879 -0.611,-1.471 -1.519,-1.471l-5.671,0c-1.166,0 -1.775,-0.893 -1.775,-1.776c0,-0.882 0.609,-1.774 1.775,-1.774l5.671,0c2.144,0 3.969,1.198 4.76,3.13c0.787,1.923 0.347,4.033 -1.148,5.505c-0.939,0.938 -2.222,1.457 -3.612,1.457c-0.138,0 -0.29,0.004 -0.452,0.01c-0.188,0.006 -0.391,0.013 -0.598,0.013ZM70.689,76.547c-0.978,0 -1.423,0.763 -1.423,1.472c0,0.708 0.445,1.471 1.423,1.471l6.301,0c4.121,0 7.749,-2.221 9.706,-5.945c1.98,-3.768 1.734,-8.254 -0.644,-11.71l-0.069,-0.1l0.069,-0.099c1.298,-1.88 1.956,-4.062 1.956,-6.491c0,-6.261 -4.861,-11.164 -11.067,-11.164l-12.795,0c-0.757,0 -1.423,0.688 -1.423,1.47l0,32.568c0,0.979 0.751,1.424 1.448,1.424c0.697,0 1.447,-0.445 1.447,-1.424l0,-31.094l11.323,0c4.507,0 8.172,3.73 8.172,8.317c0,2.649 -1.028,4.101 -1.777,5.16c-0.7,0.988 -1.085,1.532 -0.256,2.425c2.1,2.15 2.643,5.666 1.345,8.751c-1.31,3.112 -4.089,4.969 -7.435,4.969l-6.301,0ZM76.99,79.842l-6.301,0c-1.166,0 -1.775,-0.917 -1.775,-1.823c0,-0.906 0.609,-1.824 1.775,-1.824l6.301,0c3.2,0 5.857,-1.776 7.111,-4.754c1.242,-2.956 0.729,-6.319 -1.277,-8.37c-1.027,-1.107 -0.475,-1.886 0.224,-2.872c0.723,-1.022 1.713,-2.418 1.713,-4.957c0,-4.392 -3.508,-7.966 -7.82,-7.966l-10.97,0l0,30.743c0,1.165 -0.907,1.776 -1.8,1.776c-0.895,0 -1.8,-0.611 -1.8,-1.776l0,-32.568c0,-0.987 0.813,-1.822 1.775,-1.822l12.795,0c6.403,0 11.419,5.058 11.419,11.516c0,2.458 -0.655,4.675 -1.949,6.59c2.389,3.55 2.619,8.128 0.596,11.976c-2.017,3.839 -5.763,6.131 -10.017,6.131Z" style="fill:#008dc7;fill-rule:nonzero;"/><path d="M102.173,65.156c0.832,-0.421 1.796,-0.161 2.217,0.67c0.753,1.274 1.799,2.407 3.046,3.108c1.15,0.748 2.547,1.21 4.05,1.236c2.325,0.045 4.425,-0.84 5.907,-2.363c1.578,-1.474 2.538,-3.589 2.58,-5.963c0.042,-2.327 -0.839,-4.475 -2.362,-6.005c-1.427,-1.529 -3.493,-2.537 -5.819,-2.578c-1.502,-0.028 -2.865,0.336 -4.09,1.04c-1.272,0.704 -2.359,1.75 -3.156,2.996c-0.452,0.816 -1.426,1.09 -2.242,0.638c-0.768,-0.449 -1.04,-1.473 -0.539,-2.287c1.049,-1.776 2.53,-3.25 4.293,-4.238c1.763,-0.984 3.758,-1.483 5.794,-1.445c3.246,0.058 6.13,1.419 8.224,3.592c1.996,2.168 3.252,5.1 3.192,8.345c-0.059,3.248 -1.419,6.13 -3.494,8.227c-2.17,2.141 -5.102,3.397 -8.347,3.337c-2.036,-0.038 -4.013,-0.654 -5.738,-1.656c-1.726,-1.096 -3.153,-2.625 -4.138,-4.436c-0.47,-0.832 -0.162,-1.749 0.622,-2.218ZM128.516,58.508c-0.878,0.274 -1.837,-0.227 -2.064,-1.104c-0.962,-3.12 -2.851,-5.819 -5.48,-7.807c-2.488,-1.837 -5.617,-3.009 -9.057,-3.072c-20.207,-0.366 -20.757,29.966 -0.55,30.334c3.439,0.061 6.609,-0.947 9.161,-2.743c2.699,-1.84 4.686,-4.472 5.761,-7.602c0.259,-0.867 1.234,-1.287 2.103,-1.028c0.867,0.259 1.285,1.234 1.028,2.103c-1.28,3.756 -3.763,7.008 -6.953,9.228c-3.19,2.172 -6.994,3.46 -11.162,3.385c-24.566,-0.447 -23.896,-37.417 0.672,-36.972c4.166,0.077 7.922,1.453 11.031,3.738c3.108,2.385 5.472,5.674 6.613,9.525c0.226,0.876 -0.226,1.788 -1.103,2.015Z" style="fill:#008dc7;fill-rule:nonzero;"/><path d="M103.01,65.132c-0.254,-0.004 -0.517,0.058 -0.757,0.181c-0.727,0.436 -0.956,1.251 -0.548,1.974c0.969,1.782 2.378,3.295 4.077,4.376c1.774,1.028 3.73,1.593 5.646,1.629c3.097,0.055 6.016,-1.114 8.223,-3.29c2.163,-2.187 3.387,-5.062 3.441,-8.101c0.055,-3.041 -1.062,-5.961 -3.147,-8.225c-2.142,-2.222 -5.018,-3.48 -8.096,-3.535c-2.001,-0.036 -3.975,0.457 -5.706,1.424c-1.72,0.962 -3.182,2.405 -4.227,4.172c-0.217,0.354 -0.282,0.764 -0.185,1.157c0.096,0.378 0.33,0.695 0.662,0.89c0.222,0.121 0.46,0.187 0.705,0.191c0.541,0.01 1.024,-0.276 1.294,-0.763c0.832,-1.3 1.945,-2.357 3.224,-3.065c1.272,-0.731 2.679,-1.089 4.18,-1.063c2.253,0.041 4.419,1.001 5.943,2.634c1.572,1.579 2.452,3.814 2.411,6.129c-0.044,2.379 -0.98,4.542 -2.636,6.088c-1.552,1.595 -3.696,2.455 -6.032,2.412c-1.478,-0.027 -2.912,-0.465 -4.142,-1.263c-1.202,-0.676 -2.278,-1.774 -3.101,-3.169c-0.246,-0.485 -0.703,-0.773 -1.229,-0.783ZM111.422,73.644c-1.976,-0.037 -3.989,-0.619 -5.823,-1.68c-1.755,-1.117 -3.206,-2.674 -4.202,-4.506c-0.499,-0.883 -0.21,-1.916 0.686,-2.453c0.302,-0.155 0.622,-0.23 0.934,-0.224c0.658,0.012 1.231,0.373 1.531,0.965c0.775,1.312 1.834,2.394 2.975,3.035c1.184,0.771 2.553,1.189 3.965,1.215c2.238,0.039 4.291,-0.781 5.78,-2.311c1.592,-1.489 2.488,-3.563 2.53,-5.846c0.04,-2.218 -0.803,-4.361 -2.312,-5.877c-1.463,-1.566 -3.538,-2.487 -5.697,-2.527c-1.436,-0.025 -2.781,0.317 -4,1.019c-1.23,0.681 -2.3,1.696 -3.095,2.939c-0.329,0.594 -0.93,0.948 -1.601,0.934c-0.3,-0.004 -0.603,-0.088 -0.874,-0.237c-0.419,-0.246 -0.711,-0.64 -0.829,-1.113c-0.121,-0.483 -0.042,-0.987 0.224,-1.421c1.075,-1.819 2.584,-3.305 4.359,-4.299c1.784,-0.998 3.818,-1.504 5.882,-1.468c3.172,0.057 6.136,1.351 8.348,3.645c2.148,2.333 3.298,5.342 3.242,8.472c-0.058,3.129 -1.316,6.094 -3.546,8.346c-2.276,2.244 -5.285,3.449 -8.477,3.392ZM111.971,43.407c-5.64,-0.103 -10.409,1.788 -13.79,5.469c-3.003,3.266 -4.705,7.708 -4.791,12.508c-0.229,12.581 9.127,18.482 17.917,18.641c3.908,0.072 7.732,-1.09 11.059,-3.353c3.187,-2.218 5.632,-5.464 6.885,-9.141c0.111,-0.374 0.081,-0.794 -0.085,-1.146c-0.17,-0.362 -0.465,-0.622 -0.827,-0.73c-0.142,-0.041 -0.291,-0.065 -0.44,-0.068c-0.685,-0.012 -1.266,0.38 -1.443,0.977c-1.092,3.181 -3.107,5.841 -5.83,7.698c-2.667,1.876 -5.87,2.833 -9.265,2.772c-4.734,-0.085 -8.68,-1.817 -11.411,-5.007c-2.421,-2.828 -3.715,-6.597 -3.642,-10.613c0.073,-4.017 1.503,-7.738 4.026,-10.475c2.844,-3.089 6.851,-4.674 11.583,-4.589c3.324,0.06 6.492,1.135 9.159,3.106c2.653,2.004 4.57,4.735 5.545,7.897c0.157,0.612 0.724,1.044 1.377,1.056c0.157,0.001 0.315,-0.02 0.466,-0.068c0.765,-0.199 1.195,-0.99 0.985,-1.805c-1.106,-3.728 -3.371,-6.988 -6.551,-9.426c-3.194,-2.35 -6.974,-3.632 -10.927,-3.703ZM111.3,80.377c-5.743,-0.103 -10.531,-2.21 -13.844,-6.09c-2.938,-3.438 -4.506,-8.023 -4.419,-12.909c0.089,-4.885 1.824,-9.409 4.884,-12.74c3.453,-3.759 8.313,-5.689 14.056,-5.583c4.027,0.073 7.877,1.377 11.134,3.772c3.24,2.487 5.548,5.809 6.676,9.616c0.263,1.011 -0.278,1.991 -1.226,2.236c-0.179,0.056 -0.374,0.083 -0.569,0.081c-0.812,-0.016 -1.514,-0.554 -1.711,-1.311c-0.95,-3.084 -2.823,-5.752 -5.416,-7.71c-2.607,-1.928 -5.703,-2.978 -8.954,-3.037c-7.213,-0.132 -15.064,4.418 -15.251,14.717c-0.186,10.3 7.493,15.132 14.707,15.263c3.319,0.06 6.451,-0.877 9.058,-2.71c2.662,-1.816 4.63,-4.413 5.695,-7.516c0.221,-0.743 0.94,-1.236 1.785,-1.221c0.182,0.003 0.362,0.03 0.535,0.082c0.461,0.137 0.832,0.464 1.045,0.917c0.203,0.429 0.239,0.941 0.102,1.405c-1.278,3.752 -3.772,7.062 -7.023,9.323c-3.388,2.306 -7.283,3.487 -11.264,3.415Z" style="fill:#008dc7;fill-rule:nonzero;"/><path d="M142.555,45.501c0,-0.922 0.728,-1.647 1.6,-1.647c0.92,0 1.648,0.725 1.648,1.647l0,20.743c0,5.137 7.512,5.137 7.512,0l0,-20.743c0,-0.922 0.678,-1.647 1.648,-1.647c0.871,0 1.599,0.725 1.599,1.647l0,20.743c0,9.448 -14.007,9.448 -14.007,0l0,-20.743ZM135.917,66.631l0,-21.13c0,-0.922 0.726,-1.647 1.599,-1.647c0.921,0 1.648,0.725 1.648,1.647l0,21.13c0,13.569 20.791,13.569 20.791,0l0,-21.13c0,-0.922 0.677,-1.647 1.598,-1.647c0.873,0 1.599,0.725 1.599,1.647l0,21.13c0,17.785 -27.235,17.736 -27.235,0Z" style="fill:#008dc7;fill-rule:nonzero;"/><path d="M144.155,44.029c-0.785,0 -1.423,0.659 -1.423,1.472l0,20.743c0,4.747 3.539,6.91 6.826,6.91c3.289,0 6.827,-2.163 6.827,-6.91l0,-20.743c0,-0.813 -0.638,-1.472 -1.422,-1.472c-0.853,0 -1.473,0.62 -1.473,1.472l0,20.743c0,2.768 -2.038,4.028 -3.932,4.028c-1.893,0 -3.931,-1.26 -3.931,-4.028l0,-20.743c0,-0.825 -0.647,-1.472 -1.472,-1.472ZM149.558,73.506c-3.457,0 -7.178,-2.272 -7.178,-7.262l0,-20.743c0,-1.006 0.796,-1.824 1.775,-1.824c1.023,0 1.824,0.801 1.824,1.824l0,20.743c0,2.526 1.855,3.676 3.579,3.676c1.724,0 3.58,-1.15 3.58,-3.676l0,-20.743c0,-1.041 0.784,-1.824 1.825,-1.824c0.979,0 1.775,0.818 1.775,1.824l0,20.743c0,4.99 -3.721,7.262 -7.18,7.262ZM137.516,44.029c-0.784,0 -1.423,0.659 -1.423,1.472l0,21.13c0,6.331 4.21,13.146 13.455,13.146c9.227,0 13.429,-6.815 13.429,-13.146l0,-21.13c0,-0.813 -0.639,-1.472 -1.424,-1.472c-0.811,0 -1.423,0.633 -1.423,1.472l0,21.13c0,3.196 -1.145,5.881 -3.309,7.766c-1.917,1.668 -4.496,2.587 -7.263,2.587c-2.765,0 -5.344,-0.919 -7.261,-2.587c-2.166,-1.885 -3.309,-4.57 -3.309,-7.766l0,-21.13c0,-0.825 -0.646,-1.472 -1.472,-1.472ZM149.548,80.129c-3.612,0 -6.981,-1.199 -9.486,-3.378c-2.827,-2.454 -4.322,-5.954 -4.322,-10.12l0,-21.13c0,-1.006 0.797,-1.824 1.776,-1.824c1.022,0 1.823,0.801 1.823,1.824l0,21.13c0,6.871 5.297,10.001 10.219,10.001c4.922,0 10.22,-3.13 10.22,-10.001l0,-21.13c0,-1.041 0.764,-1.824 1.775,-1.824c0.979,0 1.776,0.818 1.776,1.824l0,21.13c0,4.17 -1.491,7.672 -4.311,10.126c-2.499,2.173 -5.862,3.372 -9.47,3.372Z" style="fill:#008dc7;fill-rule:nonzero;"/><path d="M175.557,43.901c0.823,-0.34 1.745,0.048 2.084,0.873l4.991,12.261l4.992,-12.261c0.291,-0.825 1.26,-1.213 2.084,-0.873c0.436,0.146 0.727,0.533 0.921,0.873l4.991,12.261l4.992,-12.261c0.291,-0.825 1.261,-1.213 2.085,-0.873c0.775,0.341 1.211,1.261 0.871,2.085l-6.495,15.894c-0.143,0.388 -0.435,0.778 -0.871,0.923c-0.824,0.29 -1.745,-0.049 -2.132,-0.923l-4.992,-12.211l-4.992,12.211c-0.145,0.388 -0.436,0.778 -0.824,0.923c-0.824,0.29 -1.792,-0.049 -2.132,-0.923l-6.493,-15.894c-0.34,-0.824 0.097,-1.744 0.92,-2.085ZM210.014,43.901c0.774,0.341 1.211,1.261 0.823,2.085l-13.764,33.826c-0.58,1.357 -2.421,1.308 -3.003,0l-4.992,-12.261l-4.992,12.261c-0.533,1.357 -2.423,1.357 -2.956,-0.048l-13.812,-33.778c-0.29,-0.824 0.146,-1.744 0.921,-2.085c0.824,-0.34 1.793,0.048 2.085,0.873l12.308,30.193l4.944,-12.164c0.629,-1.407 2.423,-1.502 3.053,0l4.991,12.164l12.262,-30.193c0.339,-0.825 1.308,-1.213 2.132,-0.873Z" style="fill:#008dc7;fill-rule:nonzero;"/><path d="M189.078,49.204l5.155,12.611c0.249,0.56 0.779,0.914 1.38,0.914c0.179,0 0.357,-0.032 0.531,-0.093c0.474,-0.159 0.693,-0.624 0.764,-0.817l6.497,-15.9c0.291,-0.708 -0.058,-1.541 -0.78,-1.857c-0.172,-0.069 -0.358,-0.107 -0.55,-0.107c-0.591,0 -1.111,0.352 -1.297,0.878l-5.158,12.669l-5.153,-12.662c-0.237,-0.41 -0.507,-0.668 -0.815,-0.772c-0.767,-0.313 -1.617,0.07 -1.862,0.765l-5.158,12.669l-5.155,-12.662c-0.22,-0.537 -0.734,-0.885 -1.306,-0.885c-0.188,0 -0.371,0.038 -0.547,0.11c-0.748,0.308 -1.119,1.14 -0.825,1.854l6.495,15.896c0.219,0.565 0.745,0.914 1.373,0.914c0.183,0 0.365,-0.032 0.537,-0.093c0.351,-0.131 0.601,-0.509 0.718,-0.817l5.156,-12.615ZM195.613,63.081c-0.741,0 -1.395,-0.433 -1.704,-1.129l-4.831,-11.818l-4.828,11.814c-0.184,0.487 -0.53,0.871 -0.925,1.02c-0.213,0.075 -0.434,0.113 -0.658,0.113c-0.765,0 -1.434,-0.445 -1.701,-1.137l-6.493,-15.892c-0.368,-0.892 0.089,-1.93 1.017,-2.314c0.22,-0.089 0.448,-0.135 0.681,-0.135c0.715,0 1.356,0.434 1.633,1.103l4.828,11.862l4.829,-11.86c0.231,-0.658 0.886,-1.105 1.627,-1.105c0.236,0 0.467,0.046 0.686,0.135c0.384,0.128 0.717,0.44 1.008,0.948l4.838,11.882l4.829,-11.86c0.233,-0.658 0.887,-1.105 1.626,-1.105c0.238,0 0.468,0.046 0.689,0.135c0.899,0.394 1.33,1.432 0.967,2.314l-6.494,15.896c-0.188,0.503 -0.545,0.877 -0.979,1.022c-0.206,0.073 -0.426,0.111 -0.645,0.111ZM168.859,43.955c-0.191,0 -0.377,0.038 -0.553,0.11c-0.704,0.308 -1.076,1.144 -0.821,1.862l13.809,33.77c0.266,0.702 0.861,0.952 1.331,0.952c0.583,0 1.08,-0.346 1.298,-0.9l5.155,-12.665l5.155,12.663c0.243,0.546 0.763,0.888 1.355,0.888c0.59,0 1.085,-0.332 1.324,-0.893l13.762,-33.823c0.157,-0.334 0.173,-0.702 0.045,-1.04c-0.136,-0.362 -0.419,-0.66 -0.776,-0.817c-0.173,-0.069 -0.359,-0.107 -0.551,-0.107c-0.597,0 -1.127,0.348 -1.348,0.887l-12.424,30.59l-5.153,-12.563c-0.258,-0.615 -0.757,-0.982 -1.335,-0.982c-0.588,0 -1.123,0.38 -1.396,0.988l-5.103,12.559l-12.474,-30.592c-0.187,-0.535 -0.708,-0.887 -1.3,-0.887ZM182.625,81c-0.749,0 -1.385,-0.451 -1.659,-1.173l-13.81,-33.775c-0.317,-0.897 0.139,-1.93 1.013,-2.311c0.223,-0.092 0.454,-0.138 0.69,-0.138c0.741,0 1.396,0.447 1.63,1.112l12.143,29.785l4.78,-11.763c0.334,-0.743 0.991,-1.202 1.72,-1.202c0.724,0 1.345,0.449 1.659,1.2l4.829,11.765l12.098,-29.792c0.276,-0.671 0.934,-1.105 1.674,-1.105c0.238,0 0.471,0.046 0.688,0.135c0.449,0.197 0.799,0.567 0.969,1.018c0.161,0.428 0.143,0.893 -0.052,1.304l-13.76,33.818c-0.294,0.686 -0.925,1.109 -1.649,1.109c-0.733,0 -1.377,-0.422 -1.679,-1.103l-4.831,-11.865l-4.828,11.859c-0.272,0.692 -0.895,1.122 -1.625,1.122Z" style="fill:#008dc7;fill-rule:nonzero;"/><path d="M232.207,64.983c0,0.92 -0.727,1.648 -1.647,1.648l-5.67,0l0,3.198l8.674,0c0.921,0 1.648,0.728 1.648,1.648c0,0.872 -0.727,1.6 -1.648,1.6l-10.274,0c-0.92,0 -1.647,-0.728 -1.647,-1.6l0,-6.494c0,-0.872 0.727,-1.599 1.647,-1.599l7.27,0c0.92,0 1.647,0.727 1.647,1.599ZM235.212,52.042c0,0.873 -0.727,1.601 -1.648,1.601l-8.674,0l0,3.247l5.67,0c0.92,0 1.647,0.727 1.647,1.647c0,0.873 -0.727,1.598 -1.647,1.598l-7.27,0c-0.92,0 -1.647,-0.725 -1.647,-1.598l0,-6.495c0,-0.92 0.727,-1.598 1.647,-1.598l10.274,0c0.921,0 1.648,0.678 1.648,1.598ZM235.212,77.97c0,0.872 -0.727,1.6 -1.648,1.6l-16.768,0c-0.872,0 -1.6,-0.728 -1.6,-1.6l0,-32.421c0,-0.873 0.728,-1.6 1.6,-1.6l16.768,0c0.921,0 1.648,0.727 1.648,1.6c0,0.922 -0.727,1.647 -1.648,1.647l-15.12,0l0,29.126l15.12,0c0.921,0 1.648,0.727 1.648,1.648Z" style="fill:#008dc7;fill-rule:nonzero;"/><path d="M223.29,50.621c-0.838,0 -1.471,0.611 -1.471,1.421l0,6.495c0,0.784 0.659,1.424 1.471,1.424l7.27,0c0.811,0 1.471,-0.64 1.471,-1.424c0,-0.824 -0.646,-1.472 -1.471,-1.472l-5.847,0l0,-3.598l8.851,0c0.811,0 1.471,-0.64 1.471,-1.425c0,-0.81 -0.633,-1.421 -1.471,-1.421l-10.274,0ZM230.56,60.313l-7.27,0c-1.005,0 -1.823,-0.798 -1.823,-1.776l0,-6.495c0,-1.012 0.783,-1.774 1.823,-1.774l10.274,0c1.04,0 1.824,0.762 1.824,1.774c0,0.98 -0.819,1.777 -1.824,1.777l-8.499,0l0,2.895l5.495,0c1.021,0 1.823,0.8 1.823,1.823c0,0.978 -0.818,1.776 -1.823,1.776ZM223.29,63.56c-0.812,0 -1.471,0.638 -1.471,1.423l0,6.494c0,0.785 0.659,1.422 1.471,1.422l10.274,0c0.811,0 1.471,-0.637 1.471,-1.422c0,-0.825 -0.647,-1.471 -1.471,-1.471l-8.851,0l0,-3.552l5.847,0c0.825,0 1.471,-0.645 1.471,-1.471c0,-0.785 -0.66,-1.423 -1.471,-1.423l-7.27,0ZM233.564,73.251l-10.274,0c-1.005,0 -1.823,-0.794 -1.823,-1.774l0,-6.494c0,-0.979 0.818,-1.774 1.823,-1.774l7.27,0c1.005,0 1.823,0.795 1.823,1.774c0,1.024 -0.802,1.825 -1.823,1.825l-5.495,0l0,2.846l8.499,0c1.023,0 1.824,0.801 1.824,1.823c0,0.98 -0.819,1.774 -1.824,1.774ZM216.796,44.126c-0.771,0 -1.422,0.652 -1.422,1.423l0,32.421c0,0.773 0.651,1.425 1.422,1.425l16.768,0c0.811,0 1.471,-0.64 1.471,-1.425c0,-0.825 -0.647,-1.471 -1.471,-1.471l-15.296,0l0,-29.477l15.296,0c0.824,0 1.471,-0.648 1.471,-1.473c0,-0.785 -0.66,-1.423 -1.471,-1.423l-16.768,0ZM233.564,79.747l-16.768,0c-0.963,0 -1.776,-0.813 -1.776,-1.777l0,-32.421c0,-0.962 0.813,-1.775 1.776,-1.775l16.768,0c1.005,0 1.824,0.795 1.824,1.775c0,1.024 -0.801,1.825 -1.824,1.825l-14.945,0l0,28.773l14.945,0c1.023,0 1.824,0.802 1.824,1.823c0,0.98 -0.819,1.777 -1.824,1.777Z" style="fill:#008dc7;fill-rule:nonzero;"/><path d="M269.715,79.62c-0.872,0 -1.598,-0.778 -1.598,-1.65l0,-32.421c0,-0.873 0.726,-1.55 1.598,-1.55c0.922,0 1.649,0.677 1.649,1.55l0,32.421c0,0.872 -0.727,1.65 -1.649,1.65ZM264.821,79.327c-0.776,0.485 -1.745,0.293 -2.278,-0.435l-11.146,-15.943l0,15.021c0,0.872 -0.727,1.6 -1.649,1.6c-0.871,0 -1.55,-0.728 -1.55,-1.6l0,-20.16c0,-0.532 0.194,-1.018 0.679,-1.308c0.679,-0.582 1.744,-0.387 2.229,0.388l14.103,20.159c0.485,0.728 0.29,1.698 -0.388,2.278ZM248.247,44.289c0.726,-0.58 1.745,-0.34 2.229,0.387l11.146,15.945l0,-15.072c0,-0.873 0.775,-1.55 1.648,-1.55c0.872,0 1.6,0.677 1.6,1.55l0,20.161c0,0.534 -0.243,1.066 -0.728,1.357c-0.726,0.534 -1.696,0.339 -2.229,-0.388l-14.053,-20.16c-0.533,-0.775 -0.34,-1.745 0.387,-2.23ZM243.304,79.62c-0.872,0 -1.601,-0.778 -1.601,-1.65l0,-32.421c0,-0.873 0.729,-1.55 1.601,-1.55c0.921,0 1.599,0.677 1.599,1.55l0,32.421c0,0.872 -0.678,1.65 -1.599,1.65Z" style="fill:#008dc7;fill-rule:nonzero;"/><path d="M249.164,44.14c-0.294,0 -0.573,0.099 -0.807,0.286c-0.324,0.217 -0.532,0.529 -0.6,0.886c-0.072,0.376 0.015,0.77 0.248,1.108l14.053,20.16c0.462,0.629 1.364,0.797 1.98,0.345c0.415,-0.251 0.655,-0.702 0.655,-1.215l0,-20.161c0,-0.757 -0.638,-1.375 -1.423,-1.375c-0.797,0 -1.471,0.63 -1.471,1.375l0,15.632l-11.467,-16.403c-0.264,-0.393 -0.71,-0.638 -1.168,-0.638ZM263.23,67.547c-0.563,0 -1.108,-0.286 -1.459,-0.763l-14.056,-20.164c-0.287,-0.417 -0.395,-0.906 -0.305,-1.375c0.088,-0.451 0.35,-0.843 0.738,-1.101c0.285,-0.231 0.641,-0.356 1.016,-0.356c0.575,0 1.133,0.304 1.459,0.791l10.823,15.483l0,-14.513c0,-0.952 0.818,-1.727 1.824,-1.727c0.98,0 1.776,0.775 1.776,1.727l0,20.161c0,0.639 -0.304,1.203 -0.813,1.507c-0.288,0.213 -0.64,0.33 -1.003,0.33ZM251.22,62.388l11.467,16.402c0.465,0.632 1.365,0.812 2.041,0.388c0.603,-0.519 0.755,-1.399 0.334,-2.031l-14.1,-20.156c-0.253,-0.405 -0.696,-0.651 -1.161,-0.651c-0.304,0 -0.584,0.103 -0.81,0.295c-0.513,0.313 -0.616,0.81 -0.616,1.175l0,20.16c0,0.785 0.616,1.425 1.373,1.425c0.812,0 1.472,-0.64 1.472,-1.425l0,-15.582ZM263.907,79.77c-0.595,0 -1.144,-0.281 -1.506,-0.775l-10.827,-15.488l0,14.463c0,0.98 -0.82,1.777 -1.826,1.777c-0.95,0 -1.727,-0.797 -1.727,-1.777l0,-20.16c0,-0.654 0.265,-1.159 0.766,-1.458c0.261,-0.229 0.63,-0.364 1.014,-0.364c0.586,0 1.143,0.31 1.454,0.808l14.098,20.154c0.522,0.781 0.341,1.86 -0.416,2.511c-0.33,0.209 -0.679,0.309 -1.03,0.309ZM243.304,44.174c-0.785,0 -1.424,0.618 -1.424,1.375l0,32.421c0,0.785 0.665,1.473 1.424,1.473c0.785,0 1.423,-0.66 1.423,-1.473l0,-32.421c0,-0.783 -0.611,-1.375 -1.423,-1.375ZM243.304,79.795c-0.962,0 -1.775,-0.835 -1.775,-1.825l0,-32.421c0,-0.952 0.795,-1.727 1.775,-1.727c1.011,0 1.774,0.743 1.774,1.727l0,32.421c0,1.007 -0.795,1.825 -1.774,1.825ZM269.715,44.174c-0.785,0 -1.423,0.618 -1.423,1.375l0,32.421c0,0.785 0.666,1.473 1.423,1.473c0.799,0 1.472,-0.674 1.472,-1.473l0,-32.421c0,-0.771 -0.646,-1.375 -1.472,-1.375ZM269.715,79.795c-0.962,0 -1.775,-0.835 -1.775,-1.825l0,-32.421c0,-0.952 0.796,-1.727 1.775,-1.727c1.024,0 1.825,0.759 1.825,1.727l0,32.421c0,0.99 -0.835,1.825 -1.825,1.825Z" style="fill:#008dc7;fill-rule:nonzero;"/><path d="M207.338,3l-1.945,7.726l-2.103,0l-1.31,-4.921c-0.16,-0.569 -0.252,-1.204 -0.344,-1.839l-0.013,0c-0.066,0.622 -0.172,1.204 -0.318,1.8l-1.31,4.96l-1.998,0l-1.944,-7.726c-0.225,-0.013 -0.503,-0.066 -0.701,-0.119l0,-1.084l3.466,0l0,1.07c-0.29,0.053 -0.648,0.12 -0.953,0.147l0.927,3.716c0.145,0.583 0.238,1.192 0.317,1.813l0.014,0c0.092,-0.595 0.198,-1.191 0.344,-1.759l1.362,-4.987l1.826,0l1.389,4.96c0.132,0.476 0.264,1.111 0.344,1.734l0.012,0c0.107,-0.623 0.199,-1.178 0.332,-1.707l0.913,-3.77c-0.318,-0.027 -0.649,-0.094 -0.94,-0.147l0,-1.07l3.333,0l0,1.084c-0.211,0.053 -0.475,0.106 -0.7,0.119Z" style="fill:#231f20;fill-rule:nonzero;"/><path d="M212.391,4.918c-0.171,-0.476 -0.304,-0.913 -0.41,-1.415l-0.013,0c-0.106,0.463 -0.238,0.978 -0.423,1.482l-0.768,2.129l2.408,0l-0.794,-2.196ZM213.053,10.726l0,-1.072c0.278,-0.053 0.634,-0.118 0.939,-0.145l-0.384,-1.059l-3.255,0l-0.369,1.059c0.304,0.027 0.661,0.092 0.939,0.145l0,1.072l-3.36,0l0,-1.072c0.211,-0.065 0.475,-0.118 0.701,-0.132l2.725,-7.725l2.103,0l2.779,7.725c0.224,0.014 0.489,0.067 0.701,0.132l0,1.072l-3.519,0Z" style="fill:#231f20;fill-rule:nonzero;"/><path d="M221.859,4.918c-0.173,-0.476 -0.305,-0.913 -0.41,-1.415l-0.013,0c-0.106,0.463 -0.238,0.978 -0.423,1.482l-0.768,2.129l2.407,0l-0.793,-2.196ZM222.52,10.726l0,-1.072c0.278,-0.053 0.635,-0.118 0.939,-0.145l-0.384,-1.059l-3.253,0l-0.371,1.059c0.304,0.027 0.661,0.092 0.94,0.145l0,1.072l-3.361,0l0,-1.072c0.212,-0.065 0.477,-0.118 0.701,-0.132l2.725,-7.725l2.104,0l2.778,7.725c0.226,0.014 0.489,0.067 0.702,0.132l0,1.072l-3.52,0Z" style="fill:#231f20;fill-rule:nonzero;"/><path d="M230.113,3.146c-0.238,0 -0.49,0.013 -0.661,0.04l0,2.58c0.12,0.012 0.344,0.025 0.608,0.025c1.045,0 1.667,-0.529 1.667,-1.363c0,-0.858 -0.515,-1.282 -1.614,-1.282ZM231.872,10.726l-2.182,-3.69l-0.238,0l0,2.46c0.251,0.026 0.543,0.065 0.806,0.145l0,1.085l-3.677,0l0,-1.072c0.344,-0.065 0.754,-0.132 1.151,-0.158l0,-6.469c-0.397,-0.027 -0.807,-0.093 -1.151,-0.16l0,-1.07l1.032,0c0.344,0 1.587,-0.053 2.685,-0.053c1.972,0 3.242,0.687 3.242,2.513c0,1.243 -0.847,2.156 -2.103,2.42c0.158,0.212 0.316,0.437 0.45,0.649l1.375,2.156c0.251,0.04 0.568,0.093 0.873,0.146l0,1.098l-2.263,0Z" style="fill:#231f20;fill-rule:nonzero;"/><path d="M238.739,3.186c-0.398,0 -0.767,0.012 -1.046,0.04l0,6.019c0.239,0.039 0.596,0.065 0.926,0.065c1.694,0 2.911,-0.952 2.911,-3.068c0,-1.918 -0.754,-3.056 -2.791,-3.056ZM238.46,10.779c-0.926,0 -2.064,-0.053 -2.487,-0.053l-1.151,0l0,-1.072c0.344,-0.065 0.755,-0.132 1.151,-0.158l0,-6.469c-0.396,-0.027 -0.807,-0.093 -1.151,-0.16l0,-1.07l1.111,0c0.702,0 1.812,-0.053 2.924,-0.053c2.765,0 4.512,1.23 4.512,4.365c0,3.069 -1.997,4.67 -4.909,4.67Z" style="fill:#231f20;fill-rule:nonzero;"/><path d="M199.89,15.41c-1.23,0 -2.368,0.979 -2.368,2.99c0,1.891 0.74,3.121 2.341,3.121c1.165,0 2.408,-0.899 2.408,-3.042c0,-1.984 -0.846,-3.069 -2.381,-3.069ZM199.744,23.083c-2.725,0 -4.061,-1.733 -4.061,-4.498c0,-2.951 1.971,-4.724 4.365,-4.724c2.382,0 4.062,1.43 4.062,4.486c0,2.95 -1.945,4.736 -4.366,4.736Z" style="fill:#231f20;fill-rule:nonzero;"/><path d="M213.395,22.938l0,-1.073c0.263,-0.052 0.622,-0.118 0.925,-0.145l-0.515,-3.347c-0.132,-0.807 -0.225,-1.415 -0.265,-1.865l-0.027,0c-0.131,0.608 -0.264,1.243 -0.49,1.944l-1.428,4.486l-1.72,0l-1.35,-4.142c-0.25,-0.726 -0.462,-1.534 -0.581,-2.288l-0.027,0c-0.052,0.675 -0.158,1.31 -0.238,1.932l-0.436,3.28c0.304,0.027 0.662,0.093 0.926,0.145l0,1.073l-3.347,0l0,-1.086c0.198,-0.052 0.463,-0.105 0.688,-0.118l1.071,-6.496c-0.396,-0.027 -0.807,-0.092 -1.151,-0.159l0,-1.072l3.387,0l1.495,4.591c0.212,0.635 0.37,1.244 0.49,1.879l0.027,0c0.132,-0.689 0.277,-1.191 0.488,-1.852l1.535,-4.618l3.361,0l0,1.072c-0.345,0.067 -0.755,0.132 -1.151,0.159l1.084,6.496c0.226,0.013 0.49,0.066 0.688,0.118l0,1.086l-3.439,0Z" style="fill:#231f20;fill-rule:nonzero;"/><path d="M228.33,15.211l-2.699,7.727l-1.998,0l-2.672,-7.727c-0.226,-0.013 -0.49,-0.065 -0.688,-0.119l0,-1.085l3.505,0l0,1.072c-0.291,0.053 -0.648,0.119 -0.952,0.146l1.323,4.008c0.172,0.503 0.371,1.098 0.53,1.747l0.013,0c0.145,-0.609 0.277,-1.112 0.542,-1.853l1.336,-3.902c-0.305,-0.027 -0.648,-0.093 -0.926,-0.146l0,-1.072l3.374,0l0,1.085c-0.199,0.054 -0.464,0.106 -0.688,0.119Z" style="fill:#231f20;fill-rule:nonzero;"/><path d="M233.357,15.41c-1.23,0 -2.369,0.979 -2.369,2.99c0,1.891 0.741,3.121 2.341,3.121c1.165,0 2.408,-0.899 2.408,-3.042c0,-1.984 -0.846,-3.069 -2.38,-3.069ZM233.21,23.083c-2.725,0 -4.061,-1.733 -4.061,-4.498c0,-2.951 1.971,-4.724 4.365,-4.724c2.383,0 4.061,1.43 4.061,4.486c0,2.95 -1.944,4.736 -4.365,4.736Z" style="fill:#231f20;fill-rule:nonzero;"/><path d="M242.789,15.41c-1.231,0 -2.368,0.979 -2.368,2.99c0,1.891 0.741,3.121 2.341,3.121c1.165,0 2.408,-0.899 2.408,-3.042c0,-1.984 -0.846,-3.069 -2.381,-3.069ZM242.644,23.083c-2.726,0 -4.062,-1.733 -4.062,-4.498c0,-2.951 1.971,-4.724 4.365,-4.724c2.383,0 4.062,1.43 4.062,4.486c0,2.95 -1.945,4.736 -4.365,4.736Z" style="fill:#231f20;fill-rule:nonzero;"/><path d="M251.414,15.357c-0.239,0 -0.49,0.013 -0.662,0.04l0,2.579c0.119,0.014 0.345,0.027 0.608,0.027c1.046,0 1.668,-0.529 1.668,-1.363c0,-0.859 -0.516,-1.283 -1.614,-1.283ZM253.173,22.938l-2.182,-3.691l-0.239,0l0,2.46c0.252,0.027 0.543,0.066 0.807,0.145l0,1.086l-3.677,0l0,-1.073c0.343,-0.065 0.753,-0.131 1.15,-0.158l0,-6.469c-0.397,-0.027 -0.807,-0.092 -1.15,-0.159l0,-1.072l1.031,0c0.344,0 1.588,-0.052 2.686,-0.052c1.971,0 3.242,0.688 3.242,2.513c0,1.244 -0.847,2.157 -2.104,2.421c0.159,0.212 0.317,0.436 0.45,0.648l1.375,2.157c0.252,0.04 0.569,0.093 0.874,0.146l0,1.098l-2.263,0Z" style="fill:#231f20;fill-rule:nonzero;"/><path d="M201.517,28.733c-0.066,-0.41 -0.132,-0.768 -0.159,-1.098l-1.376,0l0,6.284c0.397,0.026 0.807,0.092 1.151,0.158l0,1.073l-4.021,0l0,-1.073c0.343,-0.066 0.753,-0.132 1.15,-0.158l0,-6.284l-1.362,0c-0.027,0.33 -0.093,0.688 -0.159,1.098l-1.271,0l0,-2.514l7.317,0l0,2.514l-1.27,0Z" style="fill:#231f20;fill-rule:nonzero;"/><path d="M203.447,35.15l0,-1.073c0.345,-0.066 0.755,-0.132 1.151,-0.158l0,-6.469c-0.396,-0.027 -0.806,-0.093 -1.151,-0.159l0,-1.072l6.087,0l0,2.249l-1.284,0c-0.053,-0.331 -0.106,-0.648 -0.132,-0.899l-1.8,0l0,2.381l1.442,0c0.04,-0.252 0.093,-0.503 0.16,-0.727l1.098,0l0,2.684l-1.098,0c-0.08,-0.224 -0.12,-0.488 -0.16,-0.727l-1.442,0l0,2.58l1.813,0c0.026,-0.304 0.08,-0.609 0.145,-0.953l1.284,0l0,2.343l-6.113,0Z" style="fill:#231f20;fill-rule:nonzero;"/><path d="M225.487,27.423l-1.944,7.727l-2.104,0l-1.31,-4.921c-0.159,-0.57 -0.252,-1.205 -0.344,-1.84l-0.012,0c-0.067,0.622 -0.173,1.204 -0.319,1.799l-1.309,4.962l-1.998,0l-1.945,-7.727c-0.224,-0.013 -0.502,-0.066 -0.7,-0.12l0,-1.084l3.465,0l0,1.072c-0.292,0.053 -0.648,0.119 -0.952,0.146l0.926,3.716c0.146,0.583 0.238,1.192 0.317,1.813l0.014,0c0.093,-0.595 0.198,-1.191 0.344,-1.759l1.362,-4.988l1.826,0l1.389,4.961c0.132,0.476 0.264,1.111 0.344,1.733l0.013,0c0.106,-0.622 0.198,-1.177 0.331,-1.706l0.914,-3.77c-0.319,-0.027 -0.65,-0.093 -0.941,-0.146l0,-1.072l3.334,0l0,1.084c-0.211,0.054 -0.475,0.107 -0.701,0.12Z" style="fill:#231f20;fill-rule:nonzero;"/><path d="M226.73,35.15l0,-1.073c0.344,-0.066 0.754,-0.132 1.151,-0.158l0,-6.469c-0.397,-0.027 -0.807,-0.093 -1.151,-0.159l0,-1.072l6.086,0l0,2.249l-1.283,0c-0.054,-0.331 -0.106,-0.648 -0.133,-0.899l-1.799,0l0,2.381l1.442,0c0.04,-0.252 0.092,-0.503 0.159,-0.727l1.098,0l0,2.684l-1.098,0c-0.08,-0.224 -0.119,-0.488 -0.159,-0.727l-1.442,0l0,2.58l1.812,0c0.026,-0.304 0.08,-0.609 0.145,-0.953l1.284,0l0,2.343l-6.112,0Z" style="fill:#231f20;fill-rule:nonzero;"/><path d="M237.499,27.569c-0.238,0 -0.49,0.013 -0.661,0.039l0,2.58c0.119,0.013 0.343,0.027 0.608,0.027c1.045,0 1.667,-0.53 1.667,-1.363c0,-0.86 -0.516,-1.283 -1.614,-1.283ZM239.258,35.15l-2.182,-3.691l-0.238,0l0,2.46c0.251,0.026 0.542,0.066 0.807,0.145l0,1.086l-3.678,0l0,-1.073c0.343,-0.066 0.754,-0.132 1.15,-0.158l0,-6.469c-0.396,-0.027 -0.807,-0.093 -1.15,-0.159l0,-1.072l1.032,0c0.344,0 1.587,-0.053 2.685,-0.053c1.972,0 3.241,0.688 3.241,2.514c0,1.243 -0.846,2.156 -2.103,2.421c0.159,0.212 0.316,0.436 0.45,0.647l1.376,2.157c0.251,0.04 0.568,0.094 0.873,0.146l0,1.099l-2.263,0Z" style="fill:#231f20;fill-rule:nonzero;"/><path d="M247.089,35.15l0,-1.086c0.226,-0.053 0.463,-0.093 0.662,-0.119l-2.673,-3.201l0,3.175c0.279,0.026 0.596,0.066 0.874,0.145l0,1.086l-3.744,0l0,-1.073c0.344,-0.066 0.754,-0.132 1.15,-0.158l0,-6.469c-0.396,-0.027 -0.806,-0.093 -1.15,-0.159l0,-1.072l3.744,0l0,1.084c-0.278,0.08 -0.595,0.12 -0.874,0.147l0,2.976l2.647,-3.003c-0.213,-0.013 -0.49,-0.066 -0.688,-0.12l0,-1.084l3.625,0l0,1.084c-0.265,0.054 -0.582,0.107 -0.82,0.134l-2.831,3.069l3.016,3.426c0.251,0.026 0.568,0.079 0.833,0.132l0,1.086l-3.771,0Z" style="fill:#231f20;fill-rule:nonzero;"/><path d="M251.548,35.15l0,-1.073c0.343,-0.066 0.754,-0.132 1.15,-0.158l0,-6.469c-0.396,-0.027 -0.807,-0.093 -1.15,-0.159l0,-1.072l6.085,0l0,2.249l-1.283,0c-0.053,-0.331 -0.107,-0.648 -0.133,-0.899l-1.799,0l0,2.381l1.442,0c0.04,-0.252 0.093,-0.503 0.159,-0.727l1.098,0l0,2.684l-1.098,0c-0.079,-0.224 -0.119,-0.488 -0.159,-0.727l-1.442,0l0,2.58l1.812,0c0.026,-0.304 0.08,-0.609 0.147,-0.953l1.283,0l0,2.343l-6.112,0Z" style="fill:#231f20;fill-rule:nonzero;"/><path d="M267.409,27.462l0,7.688l-2.209,0l-2.726,-4.539c-0.397,-0.661 -0.701,-1.323 -0.952,-1.905c0.092,1.349 0.079,3.241 0.079,5.199c0.304,0.027 0.649,0.08 0.952,0.159l0,1.086l-3.771,0l0,-1.073c0.345,-0.066 0.754,-0.145 1.151,-0.172l0,-6.455c-0.397,-0.027 -0.806,-0.093 -1.151,-0.159l0,-1.072l3.375,0l2.685,4.511c0.397,0.649 0.662,1.205 0.993,1.88c-0.106,-1.337 -0.092,-3.19 -0.092,-5.148c-0.319,-0.025 -0.623,-0.079 -0.901,-0.159l0,-1.084l3.4,0l0,1.084c-0.25,0.067 -0.542,0.12 -0.833,0.159Z" style="fill:#231f20;fill-rule:nonzero;"/><path d="M186.999,1.211c0,-0.668 0.538,-1.207 1.206,-1.207c0.66,0 1.207,0.539 1.207,1.207c0,0.668 -0.547,1.206 -1.207,1.206c-0.668,0 -1.206,-0.538 -1.206,-1.206ZM186.999,6.003c0,-0.668 0.538,-1.204 1.206,-1.204c0.66,0 1.207,0.536 1.207,1.204c0,0.668 -0.547,1.206 -1.207,1.206c-0.668,0 -1.206,-0.538 -1.206,-1.206ZM186.999,10.795c0,-0.66 0.538,-1.206 1.206,-1.206c0.66,0 1.207,0.546 1.207,1.206c0,0.667 -0.547,1.206 -1.207,1.206c-0.668,0 -1.206,-0.539 -1.206,-1.206ZM186.999,15.595c0,-0.668 0.538,-1.206 1.206,-1.206c0.66,0 1.207,0.538 1.207,1.206c0,0.667 -0.547,1.206 -1.207,1.206c-0.668,0 -1.206,-0.539 -1.206,-1.206ZM186.999,20.387c0,-0.668 0.538,-1.207 1.206,-1.207c0.66,0 1.207,0.539 1.207,1.207c0,0.668 -0.547,1.204 -1.207,1.204c-0.668,0 -1.206,-0.536 -1.206,-1.204ZM186.999,25.179c0,-0.668 0.538,-1.207 1.206,-1.207c0.66,0 1.207,0.539 1.207,1.207c0,0.667 -0.547,1.205 -1.207,1.205c-0.668,0 -1.206,-0.538 -1.206,-1.205ZM186.999,29.97c0,-0.659 0.538,-1.205 1.206,-1.205c0.66,0 1.207,0.546 1.207,1.205c0,0.667 -0.547,1.213 -1.207,1.213c-0.668,0 -1.206,-0.546 -1.206,-1.213ZM186.999,34.77c0,-0.667 0.538,-1.205 1.206,-1.205c0.66,0 1.207,0.538 1.207,1.205c0,0.667 -0.547,1.207 -1.207,1.207c-0.668,0 -1.206,-0.54 -1.206,-1.207Z" style="fill:#231f20;fill-rule:nonzero;"/></g></svg>